<svg width="38" height="14" viewBox="0 0 38 14" fill="none" xmlns="http://www.w3.org/2000/svg">
<path d="M3.47135 13C3.42335 13 3.39335 12.97 3.38135 12.91L0.897352 0.543999C0.885352 0.495999 0.909352 0.471999 0.969352 0.471999H3.00335C3.05135 0.471999 3.08135 0.495999 3.09335 0.543999L4.56935 8.788L6.00935 0.543999C6.02135 0.495999 6.05135 0.471999 6.09935 0.471999H8.11535C8.17535 0.471999 8.19935 0.495999 8.18735 0.543999L5.73935 12.91C5.72735 12.97 5.69735 13 5.64935 13H3.47135ZM12.2209 13.18C11.5729 13.18 10.9789 13.018 10.4389 12.694C9.9109 12.358 9.4849 11.92 9.1609 11.38C8.8369 10.828 8.6749 10.222 8.6749 9.562L8.6929 3.856C8.6929 3.196 8.8489 2.596 9.1609 2.056C9.4849 1.516 9.9169 1.084 10.4569 0.76C10.9969 0.436 11.5849 0.274 12.2209 0.274C12.8689 0.274 13.4569 0.436 13.9849 0.76C14.5129 1.084 14.9329 1.516 15.2449 2.056C15.5689 2.596 15.7309 3.196 15.7309 3.856L15.7489 9.562C15.7489 10.222 15.5869 10.828 15.2629 11.38C14.9509 11.92 14.5249 12.358 13.9849 12.694C13.4569 13.018 12.8689 13.18 12.2209 13.18ZM12.2209 11.002C12.5809 11.002 12.8929 10.858 13.1569 10.57C13.4329 10.27 13.5709 9.934 13.5709 9.562L13.5529 3.856C13.5529 3.46 13.4269 3.124 13.1749 2.848C12.9229 2.572 12.6049 2.434 12.2209 2.434C11.8489 2.434 11.5309 2.572 11.2669 2.848C11.0029 3.112 10.8709 3.448 10.8709 3.856V9.562C10.8709 9.958 11.0029 10.3 11.2669 10.588C11.5309 10.864 11.8489 11.002 12.2209 11.002ZM17.1895 13C17.1415 13 17.1175 12.97 17.1175 12.91L17.1355 0.561999C17.1355 0.501999 17.1655 0.471999 17.2255 0.471999H19.2235C19.2835 0.471999 19.3135 0.501999 19.3135 0.561999L19.2955 10.786H23.0035C23.0635 10.786 23.0935 10.816 23.0935 10.876V12.91C23.0935 12.97 23.0635 13 23.0035 13H17.1895ZM24.3438 13C24.2958 13 24.2718 12.97 24.2718 12.91L24.2898 0.561999C24.2898 0.501999 24.3198 0.471999 24.3798 0.471999H26.3778C26.4378 0.471999 26.4678 0.501999 26.4678 0.561999L26.4498 10.786H30.1578C30.2178 10.786 30.2478 10.816 30.2478 10.876V12.91C30.2478 12.97 30.2178 13 30.1578 13H24.3438ZM31.4981 13C31.4501 13 31.4261 12.97 31.4261 12.91L31.4441 0.543999C31.4441 0.495999 31.4681 0.471999 31.5161 0.471999H37.2941C37.3421 0.471999 37.3661 0.501999 37.3661 0.561999V2.578C37.3661 2.626 37.3421 2.65 37.2941 2.65H33.6041V5.458H37.2941C37.3421 5.458 37.3661 5.482 37.3661 5.53L37.3841 7.564C37.3841 7.612 37.3601 7.636 37.3121 7.636H33.6041V10.786H37.3121C37.3601 10.786 37.3841 10.816 37.3841 10.876V12.928C37.3841 12.976 37.3601 13 37.3121 13H31.4981Z" fill="white"/>
</svg>
